<?xml version="1.0" encoding="utf-8"?>
<!-- Generator: Adobe Illustrator 24.2.1, SVG Export Plug-In . SVG Version: 6.00 Build 0)  -->
<svg version="1.1" id="Capa_1" xmlns="http://www.w3.org/2000/svg" xmlns:xlink="http://www.w3.org/1999/xlink" x="0px" y="0px"
	 viewBox="0 0 12 12" style="enable-background:new 0 0 12 12;" xml:space="preserve">
<style type="text/css">
	.st0{fill-rule:evenodd;clip-rule:evenodd;fill:#6956E7;}
</style>
<path class="st0" d="M3,1.1H2.3c-0.8,0-1.5,0.7-1.5,1.5v7.9c0,0.8,0.7,1.5,1.5,1.5h7.5c0.8,0,1.5-0.7,1.5-1.5V2.6
	c0-0.8-0.7-1.5-1.5-1.5H9v0.8h0.8c0.4,0,0.8,0.3,0.8,0.8v7.9c0,0.4-0.3,0.8-0.8,0.8H2.3c-0.4,0-0.8-0.3-0.8-0.8V2.6
	c0-0.4,0.3-0.8,0.8-0.8H3V1.1z"/>
<path class="st0" d="M7.1,0.8H4.9c-0.2,0-0.4,0.2-0.4,0.4v0.8c0,0.2,0.2,0.4,0.4,0.4h2.3c0.2,0,0.4-0.2,0.4-0.4V1.1
	C7.5,0.9,7.3,0.8,7.1,0.8z M4.9,0C4.3,0,3.8,0.5,3.8,1.1v0.8C3.8,2.5,4.3,3,4.9,3h2.3c0.6,0,1.1-0.5,1.1-1.1V1.1
	C8.3,0.5,7.7,0,7.1,0H4.9z"/>
</svg>
