<?xml version="1.0" encoding="utf-8"?>
<!-- Generator: Adobe Illustrator 24.2.0, SVG Export Plug-In . SVG Version: 6.00 Build 0)  -->
<svg version="1.1" id="Capa_1" xmlns="http://www.w3.org/2000/svg" xmlns:xlink="http://www.w3.org/1999/xlink" x="0px" y="0px"
	 viewBox="0 0 24 24" style="enable-background:new 0 0 24 24;" xml:space="preserve">
<style type="text/css">
	.st0{fill:none;}
	.st1{fill:#0B1623;}
	.st2{fill:#FFFFFF;}
</style>
<rect class="st0" width="24" height="24"/>
<path class="st1" d="M21.4,16.4c-1.7,3.5-5.3,6-9.4,6C6.2,22.4,1.6,17.8,1.6,12c0-4.2,2.5-7.8,6-9.4C7,3.9,6.6,5.4,6.6,7
	c0,5.8,4.7,10.4,10.4,10.4C18.6,17.4,20.1,17.1,21.4,16.4z"/>
<path class="st2" d="M12,23.4C5.7,23.4,0.6,18.3,0.6,12S5.7,0.6,12,0.6S23.4,5.7,23.4,12S18.3,23.4,12,23.4z M12,2.6
	c-5.2,0-9.4,4.2-9.4,9.4s4.2,9.4,9.4,9.4s9.4-4.2,9.4-9.4S17.2,2.6,12,2.6z"/>
<path class="st2" d="M22.4,12c0,1.6-0.4,3.1-1,4.4c-1.3,0.6-2.8,1-4.4,1C11.2,17.4,6.6,12.8,6.6,7c0-1.6,0.4-3.1,1-4.4
	c1.3-0.6,2.9-1,4.4-1C17.8,1.6,22.4,6.2,22.4,12z"/>
</svg>
