<?xml version="1.0" encoding="utf-8"?>
<!-- Generator: Adobe Illustrator 24.2.1, SVG Export Plug-In . SVG Version: 6.00 Build 0)  -->
<svg version="1.1" id="Capa_1" xmlns="http://www.w3.org/2000/svg" xmlns:xlink="http://www.w3.org/1999/xlink" x="0px" y="0px"
	 viewBox="0 0 24 24" style="enable-background:new 0 0 24 24;" xml:space="preserve">
<style type="text/css">
	.st0{fill:none;}
	.st1{fill:#0B1623;}
</style>
<rect class="st0" width="24" height="24"/>
<path class="st1" d="M12,1.5C6.2,1.5,1.5,6.2,1.5,12c0,4.9,3.5,9.4,8,10.5V19c-0.5,0.1-0.9,0.1-1.3,0c-0.6-0.2-1.1-0.6-1.5-1.2
	C6.5,17.4,6,16.9,5.6,17l-0.1-1.2c1-0.1,1.8,0.6,2.3,1.4c0.2,0.4,0.5,0.6,0.8,0.7c0.3,0.1,0.6,0,1-0.1c0.1-0.8,0.5-1.1,0.7-1.5v0
	c-2.7-0.4-3.8-1.9-4.3-3c-0.6-1.5-0.3-3.4,0.7-4.6c0,0,0.1-0.1,0-0.1C6.4,7.1,6.9,5.9,7,5.8C7.5,6,7.6,5.6,9.3,6.7l0.3,0.2
	c0.1,0.1,0.1,0,0.2,0c0.7-0.2,1.5-0.3,2.2-0.3c0.7,0,1.5,0.1,2.2,0.3l0.1,0c0,0,0,0,0.1,0C16.5,5.6,16.5,6,17,5.8
	c0,0.1,0.6,1.3,0.1,2.7c-0.1,0.2,1.8,1.9,0.8,4.8c-0.4,1.1-1.5,2.6-4.3,3v0c0.4,0.5,0.8,0.8,0.8,1.9v4.3c4.6-1.1,8-5.6,8-10.5
	C22.5,6.2,17.8,1.5,12,1.5z"/>
</svg>
