<?xml version="1.0" encoding="utf-8"?>
<!-- Generator: Adobe Illustrator 24.2.1, SVG Export Plug-In . SVG Version: 6.00 Build 0)  -->
<svg version="1.1" id="Capa_1" xmlns="http://www.w3.org/2000/svg" xmlns:xlink="http://www.w3.org/1999/xlink" x="0px" y="0px"
	 viewBox="0 0 1024 1024" style="enable-background:new 0 0 1024 1024;" xml:space="preserve">
<style type="text/css">
	.st0{fill:url(#SVGID_1_);}
	.st1{fill:url(#SVGID_2_);}
</style>
<g>
	<linearGradient id="SVGID_1_" gradientUnits="userSpaceOnUse" x1="228.1877" y1="259.6596" x2="1014.4418" y2="1042.6239">
		<stop  offset="0" style="stop-color:#00ECF2"/>
		<stop  offset="0.3154" style="stop-color:#00BBE1"/>
		<stop  offset="0.616" style="stop-color:#0093D3"/>
		<stop  offset="0.854" style="stop-color:#007BCA"/>
		<stop  offset="1" style="stop-color:#0072C7"/>
	</linearGradient>
	<path class="st0" d="M358.2,89.3c-0.5,0-1,0-1.5,0c-0.5,0-1,0-1.5,0c-63,0.8-113.9,52.1-113.9,115.4c0,63.7,51.7,115.4,115.4,115.4
		c171.5,0,310.6,139,310.6,310.6c0,146.8-101.8,269.8-238.7,302.2l2,2c200-35,352.1-209.5,352.1-419.6
		C782.7,280.4,592.8,90.1,358.2,89.3z M356.7,296.1c-50.5,0-91.4-40.9-91.4-91.4c0-50.5,40.9-91.4,91.4-91.4
		c50.5,0,91.4,40.9,91.4,91.4C448.2,255.1,407.2,296.1,356.7,296.1z"/>
	<linearGradient id="SVGID_2_" gradientUnits="userSpaceOnUse" x1="-230.2359" y1="-49.4243" x2="631.6829" y2="832.233">
		<stop  offset="0" style="stop-color:#C264E9"/>
		<stop  offset="0.1841" style="stop-color:#B963E9"/>
		<stop  offset="0.4844" style="stop-color:#A15FE8"/>
		<stop  offset="0.8612" style="stop-color:#7959E7"/>
		<stop  offset="1" style="stop-color:#6956E7"/>
	</linearGradient>
	<path class="st1" d="M356.7,381.5c-49.4,0-89.5,40.1-89.5,89.5s40.1,89.5,89.5,89.5c92.9,0,168.2,75.3,168.2,168.2
		c0,73.6-47.3,136.2-113.2,159l2.7,2.7c114.5-26.2,200-128.7,200-251.2C614.4,496.9,499,381.5,356.7,381.5z M356.7,541.9
		c-39.2,0-70.9-31.7-70.9-70.9s31.7-70.9,70.9-70.9c39.2,0,70.9,31.7,70.9,70.9S395.9,541.9,356.7,541.9z"/>
</g>
</svg>
